<?xml version="1.0" standalone="no"?>
<!DOCTYPE svg PUBLIC "-//W3C//DTD SVG 20010904//EN"
 "http://www.w3.org/TR/2001/REC-SVG-20010904/DTD/svg10.dtd">
<svg version="1.0" xmlns="http://www.w3.org/2000/svg"
 width="700.000000pt" height="700.000000pt" viewBox="0 0 700.000000 700.000000"
 preserveAspectRatio="xMidYMid meet">
<metadata>
Created by potrace 1.11, written by Peter Selinger 2001-2013
</metadata>
<g transform="translate(0.000000,700.000000) scale(0.100000,-0.100000)"
fill="#000000" stroke="none">
<path d="M0 3500 l0 -3500 3500 0 3500 0 0 3500 0 3500 -3500 0 -3500 0 0
-3500z m872 1776 c59 -6 109 -14 112 -17 2 -2 -13 -218 -35 -479 -21 -261 -38
-481 -37 -488 2 -8 40 16 93 59 222 178 440 281 689 324 117 20 336 19 457 -1
417 -72 783 -344 976 -727 47 -95 108 -282 129 -397 25 -139 22 -355 -6 -490
-89 -435 -360 -781 -751 -964 -320 -149 -689 -172 -1020 -65 -508 164 -862
599 -920 1128 -18 164 0 515 66 1266 19 220 42 488 50 595 17 222 19 233 41
254 18 19 18 19 156 2z m5503 -466 c60 -14 70 -30 67 -111 -4 -126 -152 -1782
-167 -1868 -101 -574 -517 -994 -1086 -1097 -131 -23 -374 -24 -499 -1 -637
118 -1089 639 -1117 1288 -18 402 132 772 423 1049 191 182 409 291 689 347
127 25 407 24 525 -1 313 -68 588 -241 806 -507 l59 -72 7 34 c4 19 18 189 33
379 36 485 42 540 63 563 15 17 26 18 88 12 39 -3 88 -10 109 -15z"/>
<path d="M1740 4385 c-91 -16 -227 -58 -295 -92 -164 -82 -331 -228 -429 -377
-123 -184 -177 -365 -177 -589 1 -300 116 -566 338 -778 324 -309 791 -384
1188 -190 525 256 758 852 537 1371 -59 139 -133 251 -232 350 -249 249 -596
363 -930 305z"/>
<path d="M4806 4139 c-294 -38 -574 -208 -748 -454 -161 -228 -229 -515 -182
-779 54 -313 245 -589 523 -756 295 -177 668 -198 978 -55 236 109 442 319
544 555 55 128 80 236 86 380 14 317 -104 604 -338 825 -235 222 -546 324
-863 284z"/>
</g>
</svg>
