<?xml version="1.0" standalone="no"?>
<!DOCTYPE svg PUBLIC "-//W3C//DTD SVG 20010904//EN"
 "http://www.w3.org/TR/2001/REC-SVG-20010904/DTD/svg10.dtd">
<svg version="1.0" xmlns="http://www.w3.org/2000/svg"
 width="700.000000pt" height="700.000000pt" viewBox="0 0 700.000000 700.000000"
 preserveAspectRatio="xMidYMid meet">
<metadata>
Created by potrace 1.11, written by Peter Selinger 2001-2013
</metadata>
<g transform="translate(0.000000,700.000000) scale(0.100000,-0.100000)"
fill="#000000" stroke="none">
<path d="M0 3500 l0 -3500 3500 0 3500 0 0 3500 0 3500 -3500 0 -3500 0 0
-3500z m1040 1712 c61 -7 65 -9 68 -34 2 -15 -13 -224 -33 -464 -20 -240 -35
-443 -33 -450 2 -9 29 8 78 48 289 237 595 347 935 335 208 -7 359 -44 540
-132 241 -116 457 -330 584 -580 344 -672 72 -1485 -600 -1799 -502 -235
-1106 -138 -1500 241 -186 179 -309 405 -366 673 -35 164 -22 563 43 1275 14
154 36 413 49 575 22 278 25 296 46 313 18 14 33 17 73 12 28 -3 80 -9 116
-13z m5328 -461 c12 -6 25 -24 29 -39 9 -38 -144 -1775 -167 -1892 -54 -275
-166 -487 -355 -675 -255 -254 -562 -378 -940 -378 -300 -1 -568 86 -796 257
-330 249 -520 634 -522 1061 -1 231 41 402 150 615 177 346 485 581 882 673
83 19 124 22 306 22 188 0 219 -3 299 -24 163 -43 306 -110 446 -209 73 -51
246 -220 307 -298 l39 -51 33 426 c38 501 38 499 66 527 21 21 24 21 111 9 50
-7 100 -18 112 -24z"/>
<path d="M1865 4355 c-180 -27 -315 -80 -462 -184 -301 -213 -467 -572 -432
-937 40 -427 340 -790 752 -908 570 -164 1176 204 1303 791 20 94 23 300 5
392 -42 217 -149 410 -313 567 -171 163 -369 258 -593 284 -110 12 -145 11
-260 -5z"/>
<path d="M4795 4113 c-216 -34 -434 -144 -587 -297 -156 -157 -250 -330 -294
-546 -23 -116 -15 -342 16 -450 101 -348 373 -626 715 -733 471 -146 984 75
1214 523 160 312 157 658 -9 968 -134 248 -377 438 -658 514 -57 15 -115 21
-222 23 -80 2 -158 1 -175 -2z"/>
</g>
</svg>
