<svg xmlns="http://www.w3.org/2000/svg" viewBox="0 0 837 236"><g
    fill-rule="nonzero" fill="none"><path fill="#F95A09" d="M0 0h837v235.3H0z"
      /><g fill="#FFF"><path d="M624.048
          127.141c0-3.743-2.463-7.769-6.496-7.769-4.032 0-6.495 4.026-6.495 7.77
          0 3.742 2.463 7.826 6.495 7.826 4.033 0 6.496-4.084 6.496-7.827M604
          93h7.84v22.798c1.792-2.155 4.705-3.458 7.617-3.458 7.785 0 12.543
          7.371 12.543 14.688 0 7.6-4.592 14.972-12.711 14.972-2.8
          0-5.77-1.249-7.338-3.517h-.111v2.61H604V93zM644.398
          141.913h-7.686V113.64h7.686v28.273zm.713-40.135c0 2.65-2.03 4.78-4.555
          4.78s-4.556-2.13-4.556-4.78c0-2.592 2.03-4.778 4.556-4.778 2.524 0
          4.555 2.186 4.555 4.778M658.285
          157H650.6v-43.36h7.685V157zm.715-55.222c0 2.65-2.03 4.78-4.556
          4.78-2.525 0-4.556-2.13-4.556-4.78 0-2.592 2.03-4.778 4.556-4.778
          2.525 0 4.556 2.186 4.556 4.778M669.545 127.509c0 5.269 2.995 10.253
          8.537 10.253 5.712 0 8.705-4.754 8.705-10.195
          0-5.385-3.272-9.74-8.76-9.74-5.157 0-8.482 4.641-8.482 9.682m17.02
          10.023h-.112c-2.161 2.922-5.432 4.468-8.981 4.468-7.65
          0-12.472-6.701-12.472-14.148 0-7.675 4.71-14.262 12.53-14.262 3.49 0
          6.817 1.72 8.923 4.582h.111V94H691v47.256h-4.436v-3.724zM717.32
          125.12c-.61-3.837-3.767-6.943-7.642-6.943-3.82 0-7.363 3.106-7.917
          6.944h15.558zm-15.78 3.84c.054 4.91 3.489 8.863 8.525 8.863 3.766 0
          6.2-2.315 7.918-5.476l3.765 2.202c-2.492 4.742-6.698 7.451-12.015
          7.451-7.75 0-12.733-6.04-12.733-13.66 0-7.848 4.484-14.34 12.623-14.34
          8.36 0 12.79 7.056 12.347 14.96h-20.43zM735 141h-7V92h7zM757.714
          124.3c-.387-2.868-2.153-5.68-5.135-5.68-3.092 0-4.802 2.754-5.188
          5.68h10.323zm-10.545 4.99c0 3.556 1.326 7.572 5.355 7.572 2.54 0
          4.14-1.605 5.19-3.843l7.12 1.204c-1.876 5.623-6.624 8.777-12.31
          8.777-8.39 0-13.524-6.195-13.524-14.743 0-8.546 4.361-15.257
          13.138-15.257 8.887 0 12.862 6.825 12.862 15.315v.976h-17.83zM783.493
          120.572c-1.098-1.09-2.526-1.952-4.064-1.952-1.266 0-2.528 1.034-2.528
          2.411 0 2.064 2.802 2.638 5.55 3.9 2.802 1.262 5.549 3.212 5.549 8.088
          0 6.251-4.835 9.981-10.496 9.981-3.624
          0-7.14-1.721-9.504-4.704l3.516-4.761c1.483 1.722 3.462 3.27 5.715 3.27
          1.703 0 3.077-1.205 3.077-3.041
          0-2.465-2.693-3.04-5.385-4.244-2.691-1.205-5.384-2.868-5.384-7.4
          0-5.277 3.517-9.12 8.571-9.12 2.857 0 6.484.918 8.68 2.925l-3.297
          4.647zM800.138 141h-1.307v-10.76H796V129h7v1.24h-2.862zM806.506
          128l4.487 10.702L815.496 128 818
          141.476h-1.407l-1.587-8.622h-.034L810.993 142l-3.964-9.146H807l-1.59
          8.622H804zM339.168 128.442c0-5.3-3.126-9.784-8.64-9.784-5.286 0-8.412
          4.718-8.412 9.784 0 5.124 3.012 9.9 8.412 9.9 5.57 0 8.64-4.542
          8.64-9.9M344 142.069h-5.116v-4.252h-.113c-2.047 3.087-5.23 5.183-9.038
          5.183-8.129 0-12.733-6.93-12.733-14.733 0-7.454 4.832-14.267
          12.562-14.267 3.922 0 7.105 2.097 9.209
          5.357h.113v-4.542H344v27.254zM357.261 118.24h.117c1.52-2.381
          4.268-4.24 7.25-4.24 3.566 0 6.138 1.801 7.892 4.821 1.695-2.904
          4.969-4.821 8.418-4.821 7.191 0 9.062 5.577 9.062
          11.734V142h-5.261v-15.394c0-3.486-.468-7.959-5.087-7.959-5.612 0-6.021
          5.81-6.021
          9.992V142h-5.262v-14.407c0-3.544-.175-8.946-5.028-8.946-5.612 0-6.08
          5.751-6.08 9.992V142H352v-27.186h5.261v3.427zM410.647
          121.046c-.647-1.339-2-2.387-3.53-2.387-1.47 0-2.882 1.165-2.882 2.679
          0 2.387 3.177 3.435 6.412 4.891s6.353 3.436 6.353 7.745c0 5.182-4.353
          9.026-9.47 9.026-4 0-8.06-2.271-9.53-6.114l4.53-2.039c1.117 2.039 2.47
          3.494 5 3.494 2.235 0 4.176-1.514 4.176-3.843
          0-1.456-.706-2.154-1.941-2.97l-5.177-2.736c-3.059-1.631-5.294-3.145-5.294-6.872
          0-4.426 3.647-7.92 8.118-7.92 3.353 0 6.059 1.806 7.53 4.776l-4.295
          2.27zM428.96
          142h-5.154v-22.553H421v-4.934h2.806V104h5.154v10.513H434v4.934h-5.04zM457.765
          125.355c-.64-4.076-3.315-6.812-7.503-6.812-4.072 0-7.097 2.91-7.736
          6.812h15.24zm-15.53 3.96c.058 4.66 3.199 9.027 8.202 9.027 4.013 0
          6.165-2.039 8.142-5.3l4.421 2.504c-2.56 4.717-7.329 7.454-12.622
          7.454-8.318 0-13.378-6.29-13.378-14.325 0-8.386 4.478-14.675
          13.262-14.675 8.666 0 12.738 6.406 12.738 14.5v.815h-20.765zM475.186
          119.229h.173c1.268-3.196 3.919-5.229 7.376-5.229 1.499 0 2.997.523
          4.265 1.337l-2.363 4.763c-.922-.814-1.96-1.104-3.17-1.104-5.59 0-6.28
          5.228-6.28 9.643V142H470v-27.186h5.186v4.415zM511.168
          128.294c0-5.353-3.126-9.883-8.64-9.883-5.286 0-8.412 4.766-8.412 9.883
          0 5.176 3.012 10 8.412 10 5.57 0 8.64-4.588 8.64-10m-.284
          9.47h-.113c-2.047 3.119-5.287 5.236-9.038 5.236-8.186
          0-12.733-7-12.733-14.882 0-7.53 4.832-14.412 12.505-14.412 3.979 0
          7.162 2.118 9.266 5.411h.113V91H516v51.06h-5.116v-4.296zM545.168
          128.442c0-5.3-3.126-9.784-8.64-9.784-5.286 0-8.412 4.718-8.412 9.784 0
          5.124 3.012 9.9 8.412 9.9 5.57 0 8.64-4.542 8.64-9.9M550
          142.069h-5.116v-4.252h-.113c-2.047 3.087-5.23 5.183-9.038 5.183-8.129
          0-12.733-6.93-12.733-14.733 0-7.454 4.832-14.267 12.562-14.267 3.922 0
          7.105 2.097 9.209 5.357h.113v-4.542H550v27.254zM564.261
          118.24h.117c1.52-2.381 4.268-4.24 7.25-4.24 3.566 0 6.138 1.801 7.892
          4.821 1.696-2.904 4.969-4.821 8.418-4.821 7.191 0 9.062 5.577 9.062
          11.734V142h-5.261v-15.394c0-3.486-.468-7.959-5.087-7.959-5.612 0-6.022
          5.81-6.022
          9.992V142h-5.26v-14.407c0-3.544-.176-8.946-5.029-8.946-5.612 0-6.08
          5.751-6.08 9.992V142H559v-27.186h5.261v3.427z" /></g><path d="M268.9
          103.4l4.1-46.5 13 1.1-7.1 81.7h-.1c0 1-.1 2-.2 3-3 34.7-33.6 60.3-68.3
          57.3-34.7-3-60.3-33.6-57.3-68.3 3-34.7 33.6-60.3 68.3-57.3 20.3 1.9
          37.5 13.1 47.6 29zm-253 13.4L23 35.1l13 1.1-4.1 46.5c12.8-13.9 31.7-22
          52-20.2 34.7 3 60.3 33.6 57.3 68.3-3 34.7-33.7 60.2-68.4
          57.2s-60.3-33.6-57.3-68.3c.1-1 .2-2 .4-2.9zm58 58.2c27.5 2.4 51.8-17.9
          54.2-45.5 2.4-27.6-17.9-51.8-45.5-54.2-27.6-2.4-51.8 17.9-54.2
          45.5-2.4 27.6 18 51.8 45.5 54.2zm137.5 12.1c27.5 2.4 51.8-17.9
          54.2-45.5 2.4-27.6-17.9-51.8-45.5-54.2-27.6-2.4-51.8 17.9-54.2
          45.5-2.3 27.5 18 51.8 45.5 54.2z" fill="#FFF" /></g></svg>
