<svg xmlns="http://www.w3.org/2000/svg" viewBox="0 0 1600 1600">
  <defs>
    <clipPath id="a" clipPathUnits="userSpaceOnUse">
      <path d="M0 1200h1199.991V0H0Z" />
    </clipPath>
  </defs>
  <path
    style="fill: #f85909;"
    d="M1199.991.005H.001v1199.991h1199.99z"
    transform="matrix(1.33333 0 0 -1.33333 0 1600)"
  />
  <g clip-path="url(#a)" transform="matrix(1.33333 0 0 -1.33333 0 1600)">
    <path
      style="fill: #fff;"
      d="M0 0c-109.535 0-198.332 88.795-198.332 198.332l1.781 26.238C-183.704 321.693-100.634 396.663 0 396.663c109.536 0 198.332-88.796 198.332-198.331C198.332 88.795 109.536 0 0 0m0 448.33c-74.462 0-141.28-32.591-187.078-84.243l12.921 190.342-50.756 3.446-21.592-318.038c-2.257-13.506-3.493-27.358-3.493-41.505C-249.998 60.26-138.072-51.665 0-51.665S249.998 60.26 249.998 198.332C249.998 336.402 138.072 448.33 0 448.33"
      transform="translate(311.664 496.668)"
    />
    <path
      style="fill: #fff;"
      d="M0 0c16.641 108.264 117.896 182.539 226.161 165.897 99.465-15.29 170.182-102.01 168.123-199.958l-2.225-26.204C375.417-168.53 274.162-242.805 165.898-226.16 57.635-209.519-16.643-108.264 0 0m-51.066 7.849c-20.977-136.467 72.645-264.101 209.113-285.077 136.47-20.976 264.102 72.646 285.079 209.113 2.148 13.984 3.029 27.863 2.854 41.556l26.976 317.624-50.685 4.307-16.15-190.097c-37.419 58.012-98.512 100.376-172.109 111.689C97.542 237.941-30.09 144.317-51.066 7.849"
      transform="translate(672.308 679.102)"
    />
    <path
      style="fill: #fff;"
      d="M0 0c0 7.225-4.762 14.994-12.559 14.994-7.798 0-12.56-7.769-12.56-14.994 0-7.223 4.762-15.106 12.56-15.106C-4.762-15.106 0-7.223 0 0m-38.764 65.893h15.159V21.892c3.466 4.16 9.099 6.675 14.728 6.675 15.053 0 24.254-14.227 24.254-28.348 0-14.668-8.879-28.897-24.578-28.897-5.414 0-11.156 2.41-14.188 6.787h-.216v-5.035h-15.159z"
      transform="translate(687.356 196.543)"
    />
    <path
      style="fill: #fff;"
      d="M725.69 169.617h-15.16v53.742h15.16zm1.408 76.291c0-5.036-4.006-9.085-8.986-9.085-4.981 0-8.987 4.049-8.987 9.085 0 4.926 4.006 9.082 8.987 9.082 4.98 0 8.986-4.156 8.986-9.082m25.986-104.969h-15.158v82.42h15.158zm1.411 104.969c0-5.036-4.006-9.085-8.987-9.085-4.982 0-8.988 4.049-8.988 9.085 0 4.926 4.006 9.082 8.988 9.082 4.981 0 8.987-4.156 8.987-9.082"
    />
    <path
      style="fill: #fff;"
      d="M0 0c0-10.068 5.85-19.593 16.676-19.593 11.156 0 17.002 9.085 17.002 19.482 0 10.29-6.391 18.611-17.11 18.611C6.496 18.5 0 9.633 0 0m33.244-19.153h-.217c-4.222-5.583-10.611-8.538-17.543-8.538C.543-27.691-8.877-14.886-8.877-.656c0 14.667 9.201 27.255 24.473 27.255 6.82 0 13.316-3.286 17.431-8.757h.217v46.191h8.664v-90.302h-8.664z"
      transform="translate(771.926 195.886)"
    />
    <path
      style="fill: #fff;"
      d="M0 0c-1.191 7.441-7.367 13.464-14.945 13.464-7.471 0-14.401-6.023-15.485-13.464Zm-30.863-7.444c.107-9.522 6.824-17.185 16.675-17.185 7.366 0 12.127 4.489 15.487 10.618l7.363-4.27c-4.873-9.194-13.101-14.447-23.5-14.447-15.158 0-24.904 11.712-24.904 26.487 0 15.216 8.771 27.804 24.689 27.804 16.352 0 25.014-13.682 24.149-29.007z"
      transform="translate(865.057 200.922)"
    />
    <path
      style="fill: #fff;"
      d="M898.405 169.617h-15.158v92.818h15.158z"
    />
    <path
      style="fill: #fff;"
      d="M0 0c-.758 5.472-4.223 10.837-10.072 10.837-6.065 0-9.42-5.254-10.178-10.837zm-20.684-9.524c0-6.785 2.6-14.447 10.504-14.447 4.981 0 8.121 3.063 10.18 7.333l13.967-2.298C10.287-29.665.973-35.684-10.18-35.684c-16.459 0-26.529 11.821-26.529 28.132 0 16.308 8.555 29.114 25.771 29.114 17.434 0 25.231-13.023 25.231-29.225v-1.861z"
      transform="translate(942.05 203.549)"
    />
    <path
      style="fill: #fff;"
      d="M0 0c-2.164 2.08-4.979 3.725-8.01 3.725-2.494 0-4.982-1.973-4.982-4.601 0-3.938 5.523-5.033 10.937-7.441C3.469-10.725 8.883-14.446 8.883-23.75c0-11.929-9.529-19.046-20.686-19.046-7.144 0-14.074 3.284-18.732 8.976l6.93 9.085c2.923-3.286 6.822-6.241 11.263-6.241 3.356 0 6.065 2.301 6.065 5.804 0 4.703-5.307 5.801-10.614 8.099-5.304 2.298-10.611 5.472-10.611 14.118 0 10.07 6.932 17.404 16.893 17.404 5.63 0 12.779-1.751 17.109-5.581z"
      transform="translate(990.667 210.661)"
    />
    <path
      style="fill: #fff;"
      d="M0 0h-2.641v21.49h-5.72v2.477H5.783V21.49H0Z"
      transform="translate(1067.817 169.617)"
    />
    <path
      style="fill: #fff;"
      d="m0 0 8.613-20.12L17.258 0l4.806-25.335h-2.701l-3.047 16.21h-.064L8.613-26.321 1.004-9.125H.945l-3.052-16.21h-2.704z"
      transform="translate(1079.383 194.952)"
    />
    <path
      style="fill: #fff;"
      d="M0 0c0 10.07-6.086 18.591-16.82 18.591-10.291 0-16.377-8.964-16.377-18.591 0-9.737 5.865-18.812 16.377-18.812C-5.976-18.812 0-10.181 0 0m9.406-25.894H-.553v8.079h-.221c-3.984-5.866-10.181-9.849-17.595-9.849-15.824 0-24.787 13.168-24.787 27.996 0 14.164 9.406 27.111 24.455 27.111 7.635 0 13.832-3.984 17.927-10.18h.221v8.631h9.959z"
      transform="translate(144.577 195.077)"
    />
    <path
      style="fill: #fff;"
      d="M0 0h.221c2.878 4.537 8.078 8.078 13.722 8.078 6.75 0 11.619-3.431 14.938-9.184 3.209 5.532 9.406 9.184 15.935 9.184 13.611 0 17.152-10.623 17.152-22.352v-30.985h-9.959v29.324c0 6.64-.885 15.161-9.628 15.161-10.623 0-11.397-11.067-11.397-19.034v-25.451h-9.959v27.444c0 6.75-.332 17.041-9.517 17.041C.885-.774 0-11.729 0-19.808v-25.451h-9.959V6.528H0z"
      transform="translate(179.879 214.442)"
    />
    <path
      style="fill: #fff;"
      d="M0 0c-1.217 2.545-3.762 4.537-6.639 4.537-2.767 0-5.423-2.214-5.423-5.091 0-4.537 5.976-6.528 12.062-9.295 6.086-2.766 11.951-6.528 11.951-14.717 0-9.848-8.188-17.152-17.816-17.152-7.524 0-15.159 4.316-17.926 11.619l8.52 3.873c2.103-3.873 4.648-6.639 9.406-6.639 4.205 0 7.857 2.877 7.857 7.303 0 2.766-1.328 4.094-3.652 5.644l-9.737 5.2c-5.755 3.099-9.959 5.976-9.959 13.058 0 8.41 6.86 15.05 15.27 15.05 6.308 0 11.398-3.431 14.164-9.075z"
      transform="translate(279.252 209.13)"
    />
    <path
      style="fill: #fff;"
      d="M0 0h-9.959v42.492h-5.422v9.295h5.422v19.808H0V51.787h9.738v-9.295H0Z"
      transform="translate(315.658 169.184)"
    />
    <path
      style="fill: #fff;"
      d="M0 0c-1.217 7.746-6.307 12.946-14.274 12.946-7.747 0-13.501-5.532-14.718-12.946Zm-29.545-7.525c.11-8.853 6.086-17.152 15.603-17.152 7.635 0 11.729 3.873 15.491 10.07l8.41-4.758C5.09-28.328-3.983-33.529-14.053-33.529c-15.824 0-25.451 11.951-25.451 27.221 0 15.935 8.52 27.886 25.23 27.886 16.487 0 24.233-12.173 24.233-27.554v-1.549z"
      transform="translate(369.658 200.942)"
    />
    <path
      style="fill: #fff;"
      d="M0 0h.332c2.434 6.087 7.524 9.96 14.164 9.96 2.877 0 5.754-.996 8.189-2.546l-4.538-9.073C16.377-.11 14.385.443 12.062.443 1.328.443 0-9.516 0-17.926v-25.451h-9.959V8.41H0Z"
      transform="translate(402.082 212.56)"
    />
    <path
      style="fill: #fff;"
      d="M0 0c0 10.07-6.086 18.591-16.82 18.591-10.291 0-16.377-8.964-16.377-18.591 0-9.737 5.865-18.812 16.377-18.812C-5.976-18.812 0-10.181 0 0m-.553-17.815h-.221c-3.984-5.866-10.292-9.849-17.595-9.849-15.935 0-24.787 13.168-24.787 27.996 0 14.164 9.406 27.111 24.344 27.111 7.746 0 13.943-3.984 18.038-10.18h.221v52.893h9.959v-96.05H-.553z"
      transform="translate(472.793 195.077)"
    />
    <path
      style="fill: #fff;"
      d="M0 0c0 10.07-6.086 18.591-16.82 18.591-10.291 0-16.377-8.964-16.377-18.591 0-9.737 5.865-18.812 16.377-18.812C-5.976-18.812 0-10.181 0 0m9.406-25.894H-.553v8.079h-.221c-3.984-5.866-10.181-9.849-17.595-9.849-15.824 0-24.787 13.168-24.787 27.996 0 14.164 9.406 27.111 24.455 27.111 7.636 0 13.832-3.984 17.927-10.18h.221v8.631h9.959z"
      transform="translate(537.64 195.077)"
    />
    <path
      style="fill: #fff;"
      d="M0 0h.221c2.878 4.537 8.078 8.078 13.722 8.078 6.75 0 11.619-3.431 14.939-9.184 3.209 5.532 9.405 9.184 15.933 9.184 13.612 0 17.153-10.623 17.153-22.352v-30.985h-9.959v29.324c0 6.64-.885 15.161-9.627 15.161-10.623 0-11.399-11.067-11.399-19.034v-25.451h-9.958v27.444c0 6.75-.332 17.041-9.517 17.041C.885-.774 0-11.729 0-19.808v-25.451h-9.959V6.528H0z"
      transform="translate(572.942 214.442)"
    />
  </g>
</svg>
