<svg version="1" xmlns="http://www.w3.org/2000/svg" width="933.333" height="933.333" viewBox="0 0 700.000000 700.000000"><path d="M2 351.5V700h698V3H2v348.5zM73.9 139c5.2.6 9.6 1.2 9.6 1.3.1.1-1.8 23.8-4.1 52.7-2.4 28.8-4.1 52.6-3.9 52.8.2.3 3-1.8 6.2-4.5 21.7-18.6 42.3-29.6 67-35.7 39.9-10 81.1-2.8 115.7 20.1 12.8 8.5 31 26.4 38.9 38.4 40.9 61.9 33 140.5-19 190-21.5 20.4-44.4 32-76.3 38.5-12 2.5-39 2.5-52 0-57.4-11.1-101.1-51.4-114.9-106.3-6-23.9-5.4-51.7 3.4-152.8 1.9-22 4.4-51.4 5.5-65.3 1.1-13.9 2.4-26.1 3-27.2 1.6-2.9 4.1-4.1 8-3.6 1.9.3 7.8 1 12.9 1.6zm581.6 48.5c5 .8 9.3 1.5 9.6 1.5.3 0 1.5.9 2.7 2 1.7 1.6 2.2 3.2 2.2 6.9 0 4.4-13.5 161.3-16 186.6-2.4 23.7-6.9 40.5-15.6 57.9-16.7 33.6-46.3 59.3-81.7 71.1-18.3 6.1-24.8 7-48.7 7-17.2 0-23.2-.4-30-1.9-32.6-7.1-59.6-22.5-80-45.6-32.5-37-44.5-88.1-31.9-136.3 8.9-34.1 30.2-64.2 59.3-83.7 39.1-26.2 93.3-32.2 136.2-15 22.8 9.1 45.7 26.7 63.4 48.7 3.7 4.6 6 6.7 6 5.6 0-1 .4-6.5 1-12.3.5-5.8 2.3-27.9 4-49.3 1.6-21.3 3.4-39.6 4-40.7 1.1-2 3.8-3.9 5.5-4 .6 0 5.1.7 10 1.5z"/><path d="M173.5 233C111 238.6 64.2 291.5 67.3 352.9c2.8 54.7 43.4 100.1 97.7 109.2 3 .5 11 .9 17.7.9 25.1.1 47.3-7.2 67.5-22.2 20.3-15 34.4-34.4 42.2-57.9 4.6-13.9 6-24.3 5.3-39.8-2.9-65-60.3-115.9-124.2-110.1zm314.3 28.6c-47 8.5-85.7 47.5-93.9 94.4-1.8 10.6-1.5 30.7.6 40.5 5 23.3 15.5 42.6 32.4 59.5 25.3 25.3 57.8 37.3 92 33.9 14.3-1.3 25.7-4.6 38.7-10.9 30.3-14.7 53.2-42.6 62.2-75.9 2.3-8.6 2.6-11.4 2.6-27.6 0-15.4-.3-19.3-2.2-26.8-11.4-45.2-47.6-79.4-92.1-87.2-10.3-1.8-30-1.8-40.3.1z"/></svg>