<svg version="1" xmlns="http://www.w3.org/2000/svg" width="933.333" height="933.333" viewBox="0 0 700.000000 700.000000"><path d="M0 350v350h700V0H0v350zm70.2-213.6c6 .7 11 1.4 11.2 1.7.2.2-1.6 24-4 52.9-2.3 28.8-4.2 52.6-4.1 52.7.2.1 3.9-2.7 8.2-6.3 23.3-19.1 47.1-30.8 73.2-36.1 13.8-2.8 42.5-2.5 56.2.5 44.9 10 80.6 37.6 100.5 77.7 20.1 40.3 21.3 87.7 3.3 126.9-24.4 53.4-75.2 85.9-134.2 85.9-33.6.1-63.9-10.1-90.5-30.4-30-22.9-49.3-57-54.1-95.9-2-16.4 0-58.6 6.1-128 2.7-30.7 8-95.5 8-97.7 0-.5.9-1.9 2-3.1 2.4-2.5 3.4-2.6 18.2-.8zm583.6 49.1c14.1 2.1 14.6 2.6 14.2 15-.2 8.2-16 187.4-17.1 194.5-5 32.3-17.4 58-38.4 79.9-20.4 21.1-44.5 34.6-74.5 41.4-13 3-49 3.2-61.7.4-65.5-14.4-109.8-64.4-116.3-131.2-2-19.9.4-39.8 7.1-59.8 14.9-44.4 47.5-77.1 91.8-91.7 32.1-10.6 68.5-10.4 98.1.7 9.5 3.6 24 11.4 33.4 18 8.9 6.4 29.2 26.1 34.6 33.6 2.9 4.1 3.6 4.6 4.2 3 .4-1 2.3-23.2 4.3-49.3 2-26.1 4.1-49 4.6-50.7 1-3.1 3.2-5.2 5.4-5.3.6 0 5.2.7 10.3 1.5z"/><path d="M170 231.1c-52.6 5.2-95 45-103.5 96.9-8.6 53.1 23.4 107.1 74.9 126.4 20.2 7.6 46.5 8.9 68.1 3.2 35.4-9.2 66.7-37.6 79.7-72.3 4.6-12.4 5.9-19.5 6.5-34.8.4-11.7.2-17-1.2-24-6-32.4-25-60.6-53.1-78.7-19.9-12.8-46.9-19.2-71.4-16.7zm316.5 28.3c-48 9.4-85 46.2-94.1 93.5-1.6 8.5-1.9 28.7-.5 37.1 7.7 45.8 42.1 83.4 86.9 95 21.9 5.6 46.3 4.3 67.2-3.6 38.4-14.5 67-49 74.1-89.4 1.6-9 1.6-28.9 0-38.3-6-35.8-29.6-67.3-62.6-83.7-17.3-8.7-27.7-11.2-48-11.6-10.7-.2-18.3.1-23 1z"/></svg>