<?xml version="1.0" standalone="no"?>
<!DOCTYPE svg PUBLIC "-//W3C//DTD SVG 20010904//EN"
 "http://www.w3.org/TR/2001/REC-SVG-20010904/DTD/svg10.dtd">
<svg version="1.0" xmlns="http://www.w3.org/2000/svg"
 width="360.000000pt" height="360.000000pt" viewBox="0 0 360.000000 360.000000"
 preserveAspectRatio="xMidYMid meet">
<metadata>
Created by potrace 1.11, written by Peter Selinger 2001-2013
</metadata>
<g transform="translate(0.000000,360.000000) scale(0.100000,-0.100000)"
fill="#000000" stroke="none">
<path d="M0 1800 l0 -1800 1800 0 1800 0 0 1800 0 1800 -1800 0 -1800 0 0
-1800z m417 1086 c3 -2 -33 -430 -42 -510 l-6 -50 43 40 c84 77 172 129 293
171 54 19 98 26 190 30 157 6 237 -10 375 -78 90 -45 117 -65 190 -138 144
-145 220 -326 220 -526 0 -210 -73 -387 -220 -536 -86 -86 -181 -144 -305
-186 -72 -24 -95 -27 -220 -27 -166 0 -227 14 -360 82 -71 36 -108 64 -175
132 -97 97 -149 179 -187 295 -42 129 -41 234 6 791 23 264 41 491 41 504 0
22 1 23 77 16 43 -4 79 -8 80 -10z m3020 -250 c6 -5 -90 -1076 -102 -1131 -48
-219 -228 -431 -438 -517 -149 -61 -340 -74 -492 -34 -138 37 -295 138 -385
248 -59 74 -122 197 -147 288 -27 98 -24 291 5 393 66 231 225 409 444 496
107 43 180 54 315 49 138 -6 234 -33 348 -100 68 -40 190 -152 232 -212 l20
-29 11 142 c7 77 17 204 24 282 l11 140 76 -7 c42 -3 77 -7 78 -8z"/>
<path d="M810 2404 c-85 -18 -212 -82 -276 -138 -155 -137 -231 -360 -190
-556 68 -323 382 -539 691 -475 250 52 438 241 481 485 45 254 -88 516 -318
630 -135 66 -255 83 -388 54z"/>
<path d="M2480 2264 c-217 -46 -400 -223 -455 -439 -19 -75 -19 -214 0 -288
78 -298 375 -494 672 -443 402 69 617 495 435 859 -49 99 -160 209 -262 260
-126 63 -256 80 -390 51z"/>
</g>
</svg>
