<svg id="Layer_1" xmlns="http://www.w3.org/2000/svg" viewBox="0 0 359.8 359.9"><style>.st0{fill:#f85909}.st1{fill:#fff}</style><path class="st0" d="M0 0h359.8v359.9H0z"/><path class="st1" d="M323.6 150.7c1.4-17.7 2.9-34.1 4-50.5.3-4.3 1.6-6.3 6.1-4.9.3.1.7.1 1 .1 9.2 1 9.2 1 8.4 10.5-2.2 25.9-4.4 51.7-6.8 77.6-.8 8.8-1.2 17.7-3.1 26.2-6.9 30.6-31.9 52.8-62.9 56.6-40.7 5-76.7-20.5-84.2-60.8-7.6-41.3 19.4-81.5 61.6-88 29.7-4.6 53.9 5.8 72.7 29 .9 1.1 1.6 2.1 3.2 4.2zm-3.8 41.5c.2-32.7-26.3-59.8-58.8-60-32.8-.2-60.2 26.5-60.5 59.1-.3 32.3 27.2 60.1 59.6 60.2 32.4.2 59.5-26.8 59.7-59.3zm-153.3-29.9c-12.4-56.4-77.2-78.5-122.1-42-2.2 1.8-4.4 3.7-7.1 5.9 1.5-18.8 3-36.8 4.5-55.2-4.4-.5-7.9-.7-11.3-1.3-3.3-.6-4.5.9-4.7 4-.6 9-1.4 17.9-2.1 26.9-1.5 18.4-3.5 36.8-4.5 55.2-.7 12.7-2.1 25.9.3 38.2 7.7 39.5 45.3 63.7 83.8 58.4 44.9-6.2 72.4-48.6 63.2-90.1zm-73.7 75.2c-32.6 0-59.6-27.2-59.6-60 0-32.6 27.1-59.3 60.2-59.3 32.2 0 59.2 27.4 59.2 59.9 0 32.1-27.5 59.5-59.8 59.4z"/></svg>