<svg id="Layer_1" xmlns="http://www.w3.org/2000/svg" viewBox="0 0 359.8 359.9"><style>.st0{fill:#f85909}.st1{fill:#fff}</style><path class="st0" d="M0 0h359.8v359.9H0z"/><path class="st1" d="M312.7 163.6c1.3-16.5 2.7-31.7 3.7-47 .3-4 1.5-5.9 5.7-4.6.3.1.7.1.9.1 8.6.9 8.6.9 7.8 9.8-2 24.1-4.1 48.1-6.3 72.2-.7 8.2-1.1 16.5-2.9 24.4-6.4 28.5-29.7 49.1-58.5 52.6-37.9 4.7-71.3-19.1-78.3-56.5-7.1-38.4 18-75.8 57.3-81.8 27.6-4.3 50.1 5.4 67.6 27 .9.9 1.5 1.9 3 3.8zm-3.5 38.6c.2-30.4-24.5-55.6-54.7-55.8-30.5-.2-56 24.6-56.3 55-.3 30 25.3 55.9 55.4 56 30.2.2 55.4-24.9 55.6-55.2zm-142.6-27.8c-11.5-52.5-71.8-73-113.6-39.1-2 1.7-4.1 3.4-6.6 5.5 1.4-17.5 2.8-34.2 4.2-51.3-4.1-.5-7.3-.7-10.5-1.2-3.1-.6-4.2.8-4.4 3.7-.6 8.4-1.3 16.6-2 25-1.4 17.1-3.3 34.2-4.2 51.3-.7 11.8-2 24.1.3 35.5 7.2 36.7 42.1 59.2 77.9 54.3 41.9-5.6 67.5-45.1 58.9-83.7zm-68.5 70c-30.3 0-55.4-25.3-55.4-55.8 0-30.3 25.2-55.2 56-55.2 29.9 0 55.1 25.5 55.1 55.7-.1 29.9-25.7 55.4-55.7 55.3z"/></svg>