<?xml version="1.0" encoding="utf-8"?>
<!-- Generator: Adobe Illustrator 21.1.0, SVG Export Plug-In . SVG Version: 6.00 Build 0)  -->
<svg version="1.1" id="Layer_1" xmlns="http://www.w3.org/2000/svg" xmlns:xlink="http://www.w3.org/1999/xlink" x="0px" y="0px"
	 viewBox="0 0 359.8 359.9" style="enable-background:new 0 0 359.8 359.9;" xml:space="preserve">
<style type="text/css">
	.st0{fill:#F85909;}
	.st1{fill:#FFFFFF;}
</style>
<rect class="st0" width="359.8" height="359.9"/>
<path class="st1" d="M312.7,163.6c1.3-16.5,2.7-31.7,3.7-47c0.3-4,1.5-5.9,5.7-4.6c0.3,0.1,0.7,0.1,0.9,0.1c8.6,0.9,8.6,0.9,7.8,9.8
	c-2,24.1-4.1,48.1-6.3,72.2c-0.7,8.2-1.1,16.5-2.9,24.4c-6.4,28.5-29.7,49.1-58.5,52.6c-37.9,4.7-71.3-19.1-78.3-56.5
	c-7.1-38.4,18-75.8,57.3-81.8c27.6-4.3,50.1,5.4,67.6,27C310.6,160.7,311.2,161.7,312.7,163.6z M309.2,202.2
	c0.2-30.4-24.5-55.6-54.7-55.8c-30.5-0.2-56,24.6-56.3,55c-0.3,30,25.3,55.9,55.4,56C283.8,257.6,309,232.5,309.2,202.2z"/>
<path class="st1" d="M166.6,174.4c-11.5-52.5-71.8-73-113.6-39.1c-2,1.7-4.1,3.4-6.6,5.5c1.4-17.5,2.8-34.2,4.2-51.3
	c-4.1-0.5-7.3-0.7-10.5-1.2c-3.1-0.6-4.2,0.8-4.4,3.7c-0.6,8.4-1.3,16.6-2,25c-1.4,17.1-3.3,34.2-4.2,51.3
	c-0.7,11.8-2,24.1,0.3,35.5c7.2,36.7,42.1,59.2,77.9,54.3C149.6,252.5,175.2,213,166.6,174.4z M98.1,244.4
	c-30.3,0-55.4-25.3-55.4-55.8c0-30.3,25.2-55.2,56-55.2c29.9,0,55.1,25.5,55.1,55.7C153.7,219,128.1,244.5,98.1,244.4z"/>
</svg>
