<?xml version="1.0" encoding="utf-8"?>
<!-- Generator: Adobe Illustrator 21.1.0, SVG Export Plug-In . SVG Version: 6.00 Build 0)  -->
<svg version="1.1" id="Layer_1" xmlns="http://www.w3.org/2000/svg" xmlns:xlink="http://www.w3.org/1999/xlink" x="0px" y="0px"
	 viewBox="0 0 359.8 359.9" style="enable-background:new 0 0 359.8 359.9;" xml:space="preserve">
<style type="text/css">
	.st0{fill:#F85909;}
	.st1{fill:#FFFFFF;}
</style>
<rect class="st0" width="359.8" height="359.9"/>
<path class="st1" d="M323.6,150.7c1.4-17.7,2.9-34.1,4-50.5c0.3-4.3,1.6-6.3,6.1-4.9c0.3,0.1,0.7,0.1,1,0.1c9.2,1,9.2,1,8.4,10.5
	c-2.2,25.9-4.4,51.7-6.8,77.6c-0.8,8.8-1.2,17.7-3.1,26.2c-6.9,30.6-31.9,52.8-62.9,56.6c-40.7,5-76.7-20.5-84.2-60.8
	c-7.6-41.3,19.4-81.5,61.6-88c29.7-4.6,53.9,5.8,72.7,29C321.3,147.6,322,148.6,323.6,150.7z M319.8,192.2
	c0.2-32.7-26.3-59.8-58.8-60c-32.8-0.2-60.2,26.5-60.5,59.1c-0.3,32.3,27.2,60.1,59.6,60.2C292.5,251.7,319.6,224.7,319.8,192.2z"/>
<path class="st1" d="M166.5,162.3c-12.4-56.4-77.2-78.5-122.1-42c-2.2,1.8-4.4,3.7-7.1,5.9c1.5-18.8,3-36.8,4.5-55.2
	c-4.4-0.5-7.9-0.7-11.3-1.3c-3.3-0.6-4.5,0.9-4.7,4c-0.6,9-1.4,17.9-2.1,26.9c-1.5,18.4-3.5,36.8-4.5,55.2
	c-0.7,12.7-2.1,25.9,0.3,38.2c7.7,39.5,45.3,63.7,83.8,58.4C148.2,246.2,175.7,203.8,166.5,162.3z M92.8,237.5
	c-32.6,0-59.6-27.2-59.6-60c0-32.6,27.1-59.3,60.2-59.3c32.2,0,59.2,27.4,59.2,59.9C152.6,210.2,125.1,237.6,92.8,237.5z"/>
</svg>
