<?xml version="1.0" encoding="utf-8"?>
<!-- Generator: Adobe Illustrator 21.1.0, SVG Export Plug-In . SVG Version: 6.00 Build 0)  -->
<svg version="1.1" xmlns="http://www.w3.org/2000/svg" xmlns:xlink="http://www.w3.org/1999/xlink" x="0px" y="0px"
	 viewBox="0 0 359.8 359.9" style="enable-background:new 0 0 359.8 359.9;" xml:space="preserve">
<style type="text/css">
	.st0{fill:#F85909;}
	.st1{fill:#FFFFFF;}
	.st2{display:none;}
</style>
<g id="Layer_1">
	<rect class="st0" width="359.8" height="359.9"/>
	<path class="st1" d="M310.9,164.4c1.3-16,2.6-30.7,3.6-45.5c0.3-3.9,1.5-5.7,5.5-4.5c0.3,0.1,0.7,0.1,0.9,0.1
		c8.3,0.9,8.3,0.9,7.6,9.5c-1.9,23.3-4,46.6-6.1,69.9c-0.7,7.9-1.1,16-2.8,23.6c-6.2,27.6-28.8,47.6-56.7,51
		c-36.7,4.6-69.1-18.5-75.8-54.7c-6.9-37.2,17.4-73.4,55.5-79.2c26.7-4.2,48.5,5.2,65.5,26.2C308.8,161.6,309.4,162.5,310.9,164.4z
		 M307.5,201.8c0.2-29.4-23.7-53.9-53-54.1c-29.5-0.2-54.2,23.8-54.5,53.3c-0.3,29.1,24.5,54.1,53.7,54.2
		C282.9,255.4,307.3,231.1,307.5,201.8z"/>
	<path class="st1" d="M169.4,174.9c-11.1-50.9-69.6-70.7-110-37.9c-1.9,1.6-4,3.3-6.4,5.3c1.4-17,2.7-33.1,4.1-49.7
		c-4-0.5-7.1-0.7-10.2-1.2c-3-0.6-4.1,0.8-4.3,3.6c-0.6,8.1-1.3,16.1-1.9,24.2c-1.4,16.6-3.2,33.1-4.1,49.7
		c-0.7,11.4-1.9,23.3,0.3,34.4c7,35.6,40.8,57.3,75.5,52.6C152.9,250.5,177.7,212.2,169.4,174.9z M103,242.7
		c-29.4,0-53.7-24.5-53.7-54.1c0-29.4,24.4-53.5,54.2-53.5c29,0,53.4,24.7,53.4,54C156.9,218.1,132.1,242.8,103,242.7z"/>
</g>
<g id="Layer_2" class="st2">
	
		<image style="display:inline;overflow:visible;opacity:0.6;" width="581" height="541" xlink:href="../../../../../../../Desktop/Schermafbeelding 2017-09-11 om 20.28.07.png"  transform="matrix(1 0 0 1 -379 -109)">
	</image>
</g>
</svg>
