<?xml version="1.0" standalone="no"?>
<!DOCTYPE svg PUBLIC "-//W3C//DTD SVG 20010904//EN"
 "http://www.w3.org/TR/2001/REC-SVG-20010904/DTD/svg10.dtd">
<svg version="1.0" xmlns="http://www.w3.org/2000/svg"
 width="700.000000pt" height="700.000000pt" viewBox="0 0 700.000000 700.000000"
 preserveAspectRatio="xMidYMid meet">
<metadata>
Created by potrace 1.11, written by Peter Selinger 2001-2013
</metadata>
<g transform="translate(0.000000,700.000000) scale(0.100000,-0.100000)"
fill="#000000" stroke="none">
<path d="M20 3485 l0 -3485 3490 0 3490 0 0 3485 0 3485 -3490 0 -3490 0 0
-3485z m719 2125 c52 -6 96 -12 96 -13 1 -1 -18 -238 -41 -527 -24 -288 -41
-526 -39 -528 2 -3 30 18 62 45 217 186 423 296 670 357 399 100 811 28 1157
-201 128 -85 310 -264 389 -384 409 -619 330 -1405 -190 -1900 -215 -204 -444
-320 -763 -385 -120 -25 -390 -25 -520 0 -574 111 -1011 514 -1149 1063 -60
239 -54 517 34 1528 19 220 44 514 55 653 11 139 24 261 30 272 16 29 41 41
80 36 19 -3 78 -10 129 -16z m5816 -485 c50 -8 93 -15 96 -15 3 0 15 -9 27
-20 17 -16 22 -32 22 -69 0 -44 -135 -1613 -160 -1866 -24 -237 -69 -405 -156
-579 -167 -336 -463 -593 -817 -711 -183 -61 -248 -70 -487 -70 -172 0 -232 4
-300 19 -326 71 -596 225 -800 456 -325 370 -445 881 -319 1363 89 341 302
642 593 837 391 262 933 322 1362 150 228 -91 457 -267 634 -487 37 -46 60
-67 60 -56 0 10 4 65 10 123 5 58 23 279 40 493 16 213 34 396 40 407 11 20
38 39 55 40 6 0 51 -7 100 -15z"/>
<path d="M1735 4670 c-625 -56 -1093 -585 -1062 -1199 28 -547 434 -1001 977
-1092 30 -5 110 -9 177 -9 251 -1 473 72 675 222 203 150 344 344 422 579 46
139 60 243 53 398 -29 650 -603 1159 -1242 1101z"/>
<path d="M4878 4384 c-470 -85 -857 -475 -939 -944 -18 -106 -15 -307 6 -405
50 -233 155 -426 324 -595 253 -253 578 -373 920 -339 143 13 257 46 387 109
303 147 532 426 622 759 23 86 26 114 26 276 0 154 -3 193 -22 268 -114 452
-476 794 -921 872 -103 18 -300 18 -403 -1z"/>
</g>
</svg>
