<?xml version="1.0" standalone="no"?>
<!DOCTYPE svg PUBLIC "-//W3C//DTD SVG 20010904//EN"
 "http://www.w3.org/TR/2001/REC-SVG-20010904/DTD/svg10.dtd">
<svg version="1.0" xmlns="http://www.w3.org/2000/svg"
 width="700.000000pt" height="700.000000pt" viewBox="0 0 700.000000 700.000000"
 preserveAspectRatio="xMidYMid meet">
<metadata>
Created by potrace 1.11, written by Peter Selinger 2001-2013
</metadata>
<g transform="translate(0.000000,700.000000) scale(0.100000,-0.100000)"
fill="#000000" stroke="none">
<path d="M0 3500 l0 -3500 3500 0 3500 0 0 3500 0 3500 -3500 0 -3500 0 0
-3500z m702 2136 c60 -7 110 -14 112 -17 2 -2 -16 -240 -40 -529 -23 -288 -42
-526 -41 -527 2 -1 39 27 82 63 233 191 471 308 732 361 138 28 425 25 562 -5
449 -100 806 -376 1005 -777 201 -403 213 -877 33 -1269 -244 -534 -752 -859
-1342 -859 -336 -1 -639 101 -905 304 -300 229 -493 570 -541 959 -20 164 0
586 61 1280 27 307 80 955 80 977 0 5 9 19 20 31 24 25 34 26 182 8z m5836
-491 c141 -21 146 -26 142 -150 -2 -82 -160 -1874 -171 -1945 -50 -323 -174
-580 -384 -799 -204 -211 -445 -346 -745 -414 -130 -30 -490 -32 -617 -4 -655
144 -1098 644 -1163 1312 -20 199 4 398 71 598 149 444 475 771 918 917 321
106 685 104 981 -7 95 -36 240 -114 334 -180 89 -64 292 -261 346 -336 29 -41
36 -46 42 -30 4 10 23 232 43 493 20 261 41 490 46 507 10 31 32 52 54 53 6 0
52 -7 103 -15z"/>
<path d="M1700 4689 c-526 -52 -950 -450 -1035 -969 -86 -531 234 -1071 749
-1264 202 -76 465 -89 681 -32 354 92 667 376 797 723 46 124 59 195 65 348 4
117 2 170 -12 240 -60 324 -250 606 -531 787 -199 128 -469 192 -714 167z"/>
<path d="M4865 4406 c-480 -94 -850 -462 -941 -935 -16 -85 -19 -287 -5 -371
77 -458 421 -834 869 -950 219 -56 463 -43 672 36 384 145 670 490 741 894 16
90 16 289 0 383 -60 358 -296 673 -626 837 -173 87 -277 112 -480 116 -107 2
-183 -1 -230 -10z"/>
</g>
</svg>
